<?xml version="1.0" standalone="no"?>
<!DOCTYPE svg PUBLIC "-//W3C//DTD SVG 1.1//EN" "http://www.w3.org/Graphics/SVG/1.1/DTD/svg11.dtd" >
<svg xmlns="http://www.w3.org/2000/svg" xmlns:xlink="http://www.w3.org/1999/xlink" version="1.1">
<metadata>
Created by FontForge 20150318 at Mon Jun  1 17:37:15 2015
 By uniteet7
</metadata>
<defs>
<font id="Anno" horiz-adv-x="500" >
  <font-face 
    font-family="Anno"
    font-weight="400"
    font-stretch="normal"
    units-per-em="1000"
    panose-1="2 0 5 3 0 0 0 2 0 3"
    ascent="725"
    descent="-275"
    x-height="439"
    bbox="0 -259 751 712"
    underline-thickness="50"
    underline-position="-50"
    unicode-range="U+000D-FB03"
  />
<missing-glyph horiz-adv-x="193" 
 />
    <glyph glyph-name=".notdef" horiz-adv-x="193" 
 />
    <glyph glyph-name="NULL" horiz-adv-x="0" 
 />
    <glyph glyph-name="NULL" horiz-adv-x="0" 
 />
    <glyph glyph-name="nonmarkingreturn" unicode="&#xd;" horiz-adv-x="193" 
 />
    <glyph glyph-name="space" unicode=" " horiz-adv-x="193" 
 />
    <glyph glyph-name="comma" unicode="," horiz-adv-x="141" 
 />
    <glyph glyph-name="hyphen" unicode="-" horiz-adv-x="366" 
 />
    <glyph glyph-name="period" unicode="." horiz-adv-x="141" 
 />
    <glyph glyph-name="slash" unicode="/" horiz-adv-x="408" 
 />
    <glyph glyph-name="zero" unicode="0" 
d="M259 408q-38 0 -72 -14.5t-60 -40.5q-27 -26 -41 -60.5t-14 -72.5t14 -72t41 -60q26 -27 60 -41t72 -14t72.5 14t60.5 41q26 26 40.5 60t14.5 72t-14.5 72.5t-40.5 60.5t-60.5 40.5t-72.5 14.5zM259 449q48 0 89.5 -18t72.5 -49t49 -72.5t18 -89.5q0 -47 -18 -88.5
t-49 -72.5t-72.5 -49t-89.5 -18q-47 0 -88.5 18t-72.5 49t-49 72.5t-18 88.5q0 48 18 89.5t49 72.5t72.5 49t88.5 18z" />
    <glyph glyph-name="one" unicode="1" horiz-adv-x="326" 
d="M131 344q0 31 -11.5 47t-27 22.5t-31.5 6.5h-24v20h259v-20h-25t-31 -6.5t-26 -22.5t-11 -47v-247q0 -31 11.5 -47t27 -22.5t31 -7t23.5 -0.5v-20h-259v20q9 0 25 0.5t31.5 7t26.5 22.5t11 47v247z" />
    <glyph glyph-name="two" unicode="2" horiz-adv-x="459" 
d="M432 121l-34 -121h-8h-92h-245v36q7 5 29.5 18t52.5 32t63 43t60.5 50.5t45.5 55.5t18 57q0 11 -2 30t-12 37.5t-31.5 32t-61.5 13.5q-18 0 -34.5 -7t-30 -18t-23.5 -25t-16 -29l-21 12q7 22 20 42.5t31.5 36t43 25t53.5 9.5q79 0 120.5 -40t41.5 -112q0 -44 -20 -78
t-51.5 -61t-69.5 -48.5t-75 -39.5h136q35 0 61 14.5t32 34.5h19z" />
    <glyph glyph-name="three" unicode="3" horiz-adv-x="476" 
d="M302 173q14 -5 36 -19.5t42.5 -40.5t35.5 -64.5t15 -92.5q0 -25 -9.5 -61t-34 -69t-67.5 -56t-109 -23q-38 0 -78 16t-74 45q-16 14 -23.5 28.5t-9.5 27t0.5 22.5t7.5 16q9 12 29 16t37 -12q9 -10 11 -22.5t2 -34.5q1 -30 29.5 -52.5t68.5 -22.5q44 0 70 19t40 47
t18 59.5t4 56.5q0 22 -8.5 52.5t-29 58.5t-54 47.5t-83.5 19.5v21q24 7 46 18t40 24.5t29.5 29t14.5 30.5l2 11t2.5 27.5t-3 35.5t-15 35.5t-32.5 27.5t-56 11q-18 0 -34.5 -7t-30 -18t-23.5 -25t-16 -29l-21 12q7 22 20 42.5t31.5 36t43 25t53.5 9.5q79 0 120.5 -40
t41.5 -112q0 -44 -20 -76.5t-59 -49.5z" />
    <glyph glyph-name="four" unicode="4" horiz-adv-x="487" 
d="M430 0h-65v-242h-72v242h-256v51l297 390h31v-100v-269h86zM293 72v232q0 21 -5.5 21.5t-26 -25.5t-60.5 -81.5t-109 -146.5h201z" />
    <glyph glyph-name="five" unicode="5" horiz-adv-x="470" 
d="M165 200q53 0 102 -10.5t86 -38t59 -75.5t22 -122q0 -25 -10.5 -61.5t-36 -70t-69 -57.5t-109.5 -24q-38 0 -78 16t-74 45q-16 14 -23.5 28.5t-9.5 27t0.5 22.5t7.5 16q9 12 29 16t37 -12q9 -10 11 -22.5t2 -34.5q1 -30 29.5 -52.5t68.5 -22.5q44 0 71 20t41.5 48.5
t19.5 60.5t5 57q0 47 -17 80t-46.5 54t-68 30.5t-81.5 9.5h-61v32l68 281h170q35 0 61 14.5t32 34.5h19l-34 -121h-141h-95l-42 -169h55v0z" />
    <glyph glyph-name="six" unicode="6" 
d="M232 451q44 0 83 -18t68 -49.5t46 -73.5t17 -90q0 -47 -17 -89t-46 -73.5t-68 -49.5t-83 -18t-83 18t-68 49.5t-46 73.5t-17 89q0 81 31.5 155.5t84 136.5t122 109.5t145.5 75.5l14 -25q-93 -44 -158 -101.5t-110 -147.5q7 8 18 13.5t23 8.5t24 4.5t20 1.5zM226 32
q36 -2 62 13.5t43 41.5t25.5 61t8.5 72q0 24 -5 56t-19.5 62t-39 51t-63.5 22q-36 1 -62 -16t-43 -44t-25.5 -61t-8.5 -67t6 -66.5t20.5 -60.5t39 -44.5t61.5 -19.5z" />
    <glyph glyph-name="seven" unicode="7" horiz-adv-x="479" 
d="M146 -228q-7 -15 -25 -24t-39 2q-16 11 -17.5 31t5.5 37l318 551h-217q-35 0 -61 -14.5t-32 -34.5h-19l34 121h361z" />
    <glyph glyph-name="eight" unicode="8" 
d="M312 399q79 -39 114.5 -89.5t35.5 -131.5q0 -38 -15.5 -72.5t-43 -60t-65.5 -40t-83 -12.5q-38 0 -75 12t-66.5 35.5t-48 58t-18.5 79.5q0 74 36 120.5t114 78.5q-61 34 -89 70.5t-28 92.5q0 34 14 64t38 52t55.5 35t66.5 13q34 0 64 -11.5t52.5 -33t35.5 -52t13 -67.5
q0 -22 -8 -44t-22 -41t-33.5 -34t-43.5 -22zM147 574q0 -35 31 -77t108 -80q29 10 45 30t23.5 41.5t9 41t0.5 28.5q-5 61 -31 91.5t-79 30.5t-80 -31t-27 -75zM259 15q27 0 50.5 12t41 32.5t28 46.5t10.5 54q0 30 -6.5 57.5t-24 51.5t-48 45.5t-78.5 39.5q-35 -8 -56 -24
t-32.5 -38.5t-15.5 -49.5t-4 -56q0 -30 7.5 -60t24 -54.5t42 -40t61.5 -16.5z" />
    <glyph glyph-name="nine" unicode="9" 
d="M252 -11q-44 0 -83 18t-68 49.5t-46 73.5t-17 90q0 47 17 89t46 73.5t68 49.5t83 18t83 -18t68 -49t46 -73t17 -90q0 -81 -30.5 -158t-85 -140.5t-130 -109.5t-166.5 -65l-14 25q71 25 120 53.5t81.5 58t49.5 60t23 60.5q-13 -11 -29 -13t-33 -2zM258 408
q-36 2 -62 -13.5t-43 -41.5t-25.5 -61t-8.5 -72q0 -24 5 -56t19.5 -62t39 -51t63.5 -22q36 -1 62 16t43 44t25.5 61t8.5 67t-6 66.5t-20.5 60.5t-39 44.5t-61.5 19.5z" />
    <glyph glyph-name="colon" unicode=":" horiz-adv-x="149" 
d="M119 42q0 -20 -13.5 -33.5t-33.5 -13.5q-19 0 -32.5 13.5t-13.5 33.5q0 19 13.5 32.5t32.5 13.5q20 0 33.5 -13.5t13.5 -32.5zM119 403q0 -20 -13.5 -33.5t-33.5 -13.5q-19 0 -32.5 13.5t-13.5 33.5q0 19 13.5 32.5t32.5 13.5q20 0 33.5 -13.5t13.5 -32.5z" />
    <glyph glyph-name="semicolon" unicode=";" horiz-adv-x="149" 
 />
    <glyph glyph-name="A" unicode="A" horiz-adv-x="715" 
 />
    <glyph glyph-name="B" unicode="B" horiz-adv-x="588" 
 />
    <glyph glyph-name="C" unicode="C" horiz-adv-x="699" 
 />
    <glyph glyph-name="D" unicode="D" horiz-adv-x="711" 
 />
    <glyph glyph-name="E" unicode="E" horiz-adv-x="592" 
 />
    <glyph glyph-name="F" unicode="F" horiz-adv-x="540" 
 />
    <glyph glyph-name="G" unicode="G" horiz-adv-x="734" 
 />
    <glyph glyph-name="H" unicode="H" horiz-adv-x="737" 
 />
    <glyph glyph-name="I" unicode="I" horiz-adv-x="299" 
 />
    <glyph glyph-name="J" unicode="J" horiz-adv-x="385" 
 />
    <glyph glyph-name="K" unicode="K" horiz-adv-x="669" 
 />
    <glyph glyph-name="L" unicode="L" horiz-adv-x="562" 
 />
    <glyph glyph-name="M" unicode="M" horiz-adv-x="868" 
 />
    <glyph glyph-name="N" unicode="N" horiz-adv-x="746" 
 />
    <glyph glyph-name="O" unicode="O" horiz-adv-x="698" 
 />
    <glyph glyph-name="P" unicode="P" horiz-adv-x="538" 
 />
    <glyph glyph-name="Q" unicode="Q" horiz-adv-x="740" 
 />
    <glyph glyph-name="R" unicode="R" horiz-adv-x="645" 
 />
    <glyph glyph-name="S" unicode="S" horiz-adv-x="531" 
 />
    <glyph glyph-name="T" unicode="T" horiz-adv-x="570" 
 />
    <glyph glyph-name="U" unicode="U" horiz-adv-x="758" 
 />
    <glyph glyph-name="V" unicode="V" horiz-adv-x="797" 
 />
    <glyph glyph-name="W" unicode="W" horiz-adv-x="1025" 
 />
    <glyph glyph-name="X" unicode="X" horiz-adv-x="717" 
 />
    <glyph glyph-name="Y" unicode="Y" horiz-adv-x="665" 
 />
    <glyph glyph-name="Z" unicode="Z" horiz-adv-x="567" 
 />
    <glyph glyph-name="a" unicode="a" horiz-adv-x="456" 
d="M456 73q-18 -41 -35 -60.5t-41 -19.5q-26 0 -48 20.5t-22 65.5q-35 -36 -69 -60t-81 -24q-59 0 -93.5 33.5t-34.5 91.5q0 37 24 64.5t63 48t88.5 35.5t100.5 29q-2 30 -5 53t-12 38.5t-26.5 23t-47.5 7.5q-21 0 -39 -5t-31 -15.5t-18.5 -27t-1.5 -38.5q2 -10 -1.5 -18.5
t-10 -14.5t-14 -9t-13.5 -3q-19 0 -29 12t-10 29q0 34 15.5 58t40 39t54 21.5t57.5 6.5q26 0 55.5 -5.5t54 -21.5t41 -44.5t16.5 -73.5v-218q0 -20 1 -29t12 -14t23 6.5t20 28.5zM164 46q28 -6 50 1t39 22t31 36.5t26 43.5q0 37 -0.5 58.5t-0.5 33t-0.5 14.5t-0.5 4
q-42 -14 -78.5 -25t-63.5 -26t-42.5 -36t-15.5 -54q0 -23 12.5 -43.5t43.5 -28.5z" />
    <glyph glyph-name="b" unicode="b" horiz-adv-x="525" 
 />
    <glyph glyph-name="c" unicode="c" horiz-adv-x="458" 
d="M364 286q-18 6 -22.5 22t-5.5 28q-2 30 -13 46.5t-25.5 24.5t-30.5 9.5t-28 1.5q-2 0 -11.5 0.5t-22 -3t-27.5 -12.5t-28.5 -26.5t-24 -46t-14.5 -70.5v-3q-4 -41 3 -79t25.5 -67t49 -47t72.5 -18q33 0 56.5 10t39 24.5t25 29.5t14.5 26l34 -17q-5 -11 -17.5 -31.5
t-34.5 -41.5t-54.5 -37.5t-78.5 -17.5q-46 0 -85 15t-67.5 44.5t-45 71.5t-16.5 96q0 48 14.5 91.5t41.5 76t65.5 52t86.5 19.5q121 0 179 -97q2 -5 5.5 -19.5t-4.5 -31.5t-23 -23t-32 0z" />
    <glyph glyph-name="d" unicode="d" horiz-adv-x="546" 
d="M453 76q0 -27 19.5 -32t46.5 -4v-20q-34 2 -65.5 -7t-60.5 -24l-12 79q-17 -18 -34 -33.5t-37.5 -26t-46 -15t-59.5 -2.5q-44 4 -79.5 27t-59 58t-34 79.5t-4.5 91.5q5 47 26 87.5t52 69.5t69 43.5t78 8.5q41 -6 74.5 -25.5t54.5 -50.5v222q0 16 -7.5 25.5t-19 14t-24 6
t-21.5 1.5v20q16 -1 35.5 1t38.5 6t37 10t33 13v-623zM100 239q-5 -47 3.5 -82t25 -59t38 -37t42.5 -16q60 -8 99 7.5t73 60.5v225q-8 9 -21.5 21.5t-29.5 23.5t-34.5 19t-36.5 8q-23 0 -48 -6t-47.5 -24.5t-39.5 -52t-24 -88.5z" />
    <glyph glyph-name="e" unicode="e" horiz-adv-x="468" 
d="M264 42q30 0 53 10t39.5 24.5t26.5 30t15 26.5q10 -5 13 -6t4.5 -2t4.5 -2.5t13 -5.5q-4 -10 -16.5 -31t-35 -42.5t-55 -37.5t-77.5 -17q-46 0 -85.5 15t-68 44.5t-44.5 72t-16 97.5q0 48 15.5 91t42.5 76t65 52.5t83 19.5q52 0 88.5 -16.5t59 -44.5t33 -64.5t11.5 -75.5
q-29 0 -67 0.5t-80.5 0.5t-86.5 -0.5t-85 -0.5q-5 -41 2 -79.5t26 -68.5t49.5 -48t72.5 -18zM243 419q-24 0 -45.5 -9.5t-39 -26t-28.5 -38.5t-14 -47h238q-1 27 -6.5 49t-18.5 38t-34 25t-52 9z" />
    <glyph glyph-name="f" unicode="f" horiz-adv-x="335" 
 />
    <glyph glyph-name="g" unicode="g" horiz-adv-x="510" 
 />
    <glyph glyph-name="h" unicode="h" horiz-adv-x="550" 
d="M102 602q0 16 -8 25t-19 14t-24 6.5t-22 1.5v20q15 -1 34 0.5t39.5 6t39.5 10.5t33 14v-328q18 17 39 32.5t44 26.5t47.5 16.5t50.5 2.5q40 -5 64 -20.5t36.5 -38t16 -50.5t3.5 -58v-210q0 -20 6.5 -30.5t16.5 -15.5t21.5 -6t20.5 -1v-20h-202v20q11 0 22.5 1t20.5 6
t15 15.5t6 30.5v210q0 7 -0.5 24t-5.5 35t-17 34t-35 21q-27 6 -52 2t-47 -15.5t-40 -29.5t-31 -40v-241q0 -20 6.5 -30.5t16.5 -15.5t21.5 -6t20.5 -1v-20h-202v20q11 0 22.5 1t20.5 6t15 15.5t6 30.5v529v0z" />
    <glyph glyph-name="i" unicode="i" horiz-adv-x="229" 
d="M86 349q0 21 -8.5 33.5t-20.5 19t-25.5 8.5t-23.5 2v21q35 0 75.5 8.5t71.5 23.5v-392q0 -20 6.5 -30.5t16.5 -15.5t21.5 -6t20.5 -1v-20h-198v20q11 0 22.5 1t20.5 6t15 15.5t6 30.5v276zM162 646q0 -20 -13.5 -33.5t-33.5 -13.5q-19 0 -32.5 13.5t-13.5 33.5
q0 19 13.5 32.5t32.5 13.5q20 0 33.5 -13.5t13.5 -32.5z" />
    <glyph glyph-name="j" unicode="j" horiz-adv-x="226" 
 />
    <glyph glyph-name="k" unicode="k" horiz-adv-x="512" 
 />
    <glyph glyph-name="l" unicode="l" horiz-adv-x="241" 
 />
    <glyph glyph-name="m" unicode="m" horiz-adv-x="773" 
d="M108 342q0 35 -20.5 46t-51.5 13v20q33 -2 69 7t65 23l11 -78q10 12 26.5 25.5t37 25.5t44.5 19.5t49 7.5q22 0 38.5 -7t27 -18t16.5 -25t8 -28q10 12 26.5 25.5t37 25.5t44.5 19.5t49 7.5q45 0 73 -28.5t28 -96.5v-253q0 -20 6.5 -30.5t16.5 -15.5t21.5 -6t20.5 -1v-20
h-202v20q11 0 22.5 1t20.5 6t15 15.5t6 30.5v214v5v36q-1 12 -3 24t-6.5 22.5t-11.5 18.5t-17 11q-21 5 -40 -1.5t-36.5 -20t-33 -31.5t-28.5 -35v-243q0 -20 6.5 -30.5t16.5 -15.5t21.5 -6t20.5 -1v-20h-200v20q11 0 22.5 1t20.5 6t15 15.5t6 30.5v214q0 7 0.5 24.5
t-2.5 36t-11 35t-25 21.5q-23 6 -43.5 0t-39 -19.5t-35 -31.5t-29.5 -37v-243q0 -20 6.5 -30.5t16.5 -15.5t21.5 -6t20.5 -1v-20h-202v20q11 0 22.5 1t20.5 6t15 15.5t6 30.5v269v0z" />
    <glyph glyph-name="n" unicode="n" horiz-adv-x="553" 
d="M101 342q-1 21 -9 32.5t-19 17.5t-23.5 7t-22.5 0v20q29 0 63.5 7.5t63.5 20.5l17 -78q42 39 84.5 63.5t92.5 18.5q40 -5 63.5 -22.5t34.5 -41.5t14 -51.5t3 -52.5v-210q0 -20 6.5 -30.5t16.5 -15.5t21.5 -6t20.5 -1v-20h-199v20q11 0 22.5 1t20.5 6t15 15.5t6 30.5v238
q-1 12 -3 25.5t-7.5 26t-14.5 22t-23 12.5q-28 6 -49.5 2.5t-41 -14.5t-39 -28t-44.5 -37v-247q0 -20 6.5 -30.5t16.5 -15.5t21.5 -6t20.5 -1v-20h-199v20q11 0 22.5 1t20.5 6t15 15.5t6 30.5v269v0z" />
    <glyph glyph-name="o" unicode="o" horiz-adv-x="476" 
d="M241 453q44 0 83 -18t68 -49.5t46 -73.5t17 -90q0 -47 -17 -89t-46 -73.5t-68 -49.5t-83 -18t-83 18t-68 49.5t-46 73.5t-17 89q0 48 17 90t46 73.5t68 49.5t83 18zM374 222q0 24 -5 56t-19.5 62t-39 51t-63.5 22q-36 1 -62 -16t-43 -44t-25.5 -61t-8.5 -67t6 -66.5
t20.5 -60.5t39 -44.5t61.5 -19.5q36 -2 62 13.5t43 41.5t25.5 61t8.5 72z" />
    <glyph glyph-name="p" unicode="p" horiz-adv-x="552" 
 />
    <glyph glyph-name="q" unicode="q" horiz-adv-x="544" 
 />
    <glyph glyph-name="r" unicode="r" horiz-adv-x="389" 
d="M92 354q-3 18 -10 28.5t-16 15.5t-19 6t-20 1v20q34 0 63.5 8.5t59.5 22.5l11 -76q18 17 34 31.5t33.5 25t37 15.5t44.5 3q16 -2 28.5 -9.5t21.5 -17t14 -20t5 -19.5q0 -17 -9.5 -32t-35.5 -15q-10 0 -16.5 2t-12 6t-11 10t-14.5 15q-11 11 -17 16t-23 5q-20 0 -41 -22
t-38 -52v-249q0 -20 6.5 -30.5t16.5 -15.5t21.5 -6t20.5 -1v-20h-198v20q11 0 22.5 1t20.5 6t15 15.5t6 30.5v281v0z" />
    <glyph glyph-name="s" unicode="s" horiz-adv-x="375" 
d="M174 195q-27 10 -51 21t-43 26.5t-30 38t-11 56.5q0 24 9.5 45.5t27.5 38t43 26.5t55 10q22 0 41 -8t33 -14t23 -5t12 19l28 3l13 -147l-28 -2q-2 18 -13.5 38t-29 36.5t-38 27.5t-41.5 11q-36 0 -57.5 -14.5t-21.5 -46.5q0 -20 10.5 -33t26.5 -22.5t35.5 -17.5t37.5 -18
q27 -14 51.5 -25t43.5 -26.5t30.5 -39.5t11.5 -65q0 -24 -10 -47t-27.5 -40.5t-42 -28t-54.5 -10.5q-45 0 -81 17q-14 8 -24.5 14.5t-17.5 8t-10.5 -3t-3.5 -18.5h-30v172h23q0 -17 5.5 -33.5t13 -31t16.5 -25.5t16 -17q20 -17 43.5 -28t56.5 -11q27 0 51 18t24 56
q0 20 -7.5 33.5t-22.5 23.5t-36.5 18.5t-49.5 19.5z" />
    <glyph glyph-name="t" unicode="t" horiz-adv-x="300" 
d="M294 65q-1 -9 -5 -20.5t-12.5 -22.5t-22.5 -19.5t-35 -12.5q-31 -6 -55.5 0t-41.5 19t-26 32.5t-9 40.5v318h-87v39q34 3 56 9.5t35 22.5t18.5 44.5t5.5 74.5l44 11v-151h109l15 -50h-124v-281q0 -42 13 -64t34 -22q18 0 34.5 11.5t24.5 34.5z" />
    <glyph glyph-name="u" unicode="u" horiz-adv-x="555" 
d="M220 40q28 -6 54 1t47.5 22t39.5 36.5t30 43.5v-70q-18 -18 -38.5 -34.5t-44 -28.5t-48.5 -18t-51 -3q-41 4 -65 19t-36.5 37.5t-16 50.5t-3.5 59v204q-1 16 -7.5 25t-16 13.5t-20 5.5t-18.5 1v20q34 0 71 8t67 23v-334q1 -12 4 -24.5t9.5 -23.5t16.5 -20t26 -13zM464 81
q0 -27 19 -39t46 -11v-20q-34 2 -65.5 0t-60.5 -17l-12 79v286q-1 16 -7.5 25t-15.5 13.5t-19.5 5.5t-18.5 1v20q32 0 68.5 8t65.5 23v-374z" />
    <glyph glyph-name="v" unicode="v" horiz-adv-x="532" 
 />
    <glyph glyph-name="w" unicode="w" horiz-adv-x="783" 
 />
    <glyph glyph-name="x" unicode="x" horiz-adv-x="557" 
 />
    <glyph glyph-name="y" unicode="y" horiz-adv-x="535" 
d="M234 -40q7 15 7 23q0 2 -3 10l-177 393q-10 23 -27 27.5t-34 5.5v20h215v-20q-11 0 -24.5 -1.5t-24.5 -6t-16 -14t1 -25.5l131 -299l124 299q7 17 1.5 26.5t-16.5 14t-24 5.5t-20 1v20h182v-20q-20 0 -36 -7.5t-25 -28.5l-237 -546q-23 -53 -55.5 -74t-65.5 -22
q-15 0 -32.5 5t-32.5 15t-25.5 24t-10.5 32q0 15 10.5 28t27.5 13q14 0 25 -9.5t16 -23.5q9 -20 17.5 -28t20.5 -8t23 7t25 33z" />
    <glyph glyph-name="z" unicode="z" horiz-adv-x="412" 
 />
    <glyph glyph-name="quotedblleft" unicode="&#x201c;" horiz-adv-x="274" 
d="M143 582q0 28 10.5 50.5t24.5 39t27.5 27t19.5 13.5l11 -20q-5 -3 -12 -9.5t-15 -15t-15 -18.5t-11 -21q2 1 7 1q19 0 32.5 -13.5t13.5 -33.5q0 -19 -13.5 -32.5t-32.5 -13.5q-20 0 -33.5 13.5t-13.5 32.5zM23 582q0 28 10.5 50.5t24.5 39t27.5 27t19.5 13.5l11 -20
q-5 -3 -12 -9.5t-15 -15t-15 -18.5t-11 -21q2 1 7 1q19 0 32.5 -13.5t13.5 -33.5q0 -19 -13.5 -32.5t-32.5 -13.5q-20 0 -33.5 13.5t-13.5 32.5z" />
    <glyph glyph-name="fi" unicode="&#xfb01;" 
 />
    <glyph glyph-name="fl" unicode="&#xfb02;" 
 />
    <glyph glyph-name="endash" unicode="&#x2013;" horiz-adv-x="455" 
d="M402 326v-51h-352v51h352z" />
    <glyph glyph-name="quotedblright" unicode="&#x201d;" horiz-adv-x="262" 
d="M117 666q0 -28 -10.5 -50.5t-24.5 -39t-27.5 -27t-19.5 -13.5l-11 20q4 3 11.5 9.5t15.5 15t15 18.5t11 21q-2 -1 -7 -1q-19 0 -32.5 13.5t-13.5 33.5q0 19 13.5 32.5t32.5 13.5q20 0 33.5 -13.5t13.5 -32.5zM237 666q0 -28 -10.5 -50.5t-24.5 -39t-27.5 -27t-19.5 -13.5
l-11 20q4 3 11.5 9.5t15.5 15t15 18.5t11 21q-2 -1 -7 -1q-19 0 -32.5 13.5t-13.5 33.5q0 19 13.5 32.5t32.5 13.5q20 0 33.5 -13.5t13.5 -32.5z" />
    <glyph glyph-name="emdash" unicode="&#x2014;" horiz-adv-x="544" 
d="M492 326v-51h-442v51h442z" />
    <glyph glyph-name="multiply" unicode="&#xd7;" horiz-adv-x="469" 
d="M235 247l171 192l26 -28l-171 -192l170 -191l-25 -29l-171 191l-171 -191l-25 29l170 191l-171 192l26 28z" />
    <glyph glyph-name="ff" unicode="&#xfb00;" 
 />
    <glyph glyph-name="ffi" unicode="&#xfb03;" horiz-adv-x="719" 
 />
    <glyph glyph-name="APOSTROPHE" unicode="'" horiz-adv-x="153" 
d="M158 666q0 -28 -10.5 -50.5t-24.5 -39t-27.5 -27t-19.5 -13.5l-11 20q4 3 11.5 9.5t15.5 15t15 18.5t11 21q-2 -1 -7 -1q-19 0 -32.5 13.5t-13.5 33.5q0 19 13.5 32.5t32.5 13.5q20 0 33.5 -13.5t13.5 -32.5z" />
    <glyph glyph-name="parenright" unicode=")" horiz-adv-x="270" 
 />
    <glyph glyph-name="parenleft" unicode="(" horiz-adv-x="255" 
 />
    </font>
</defs>
</svg>
