<?xml version="1.0" encoding="iso-8859-1"?>
<!-- Generator: Adobe Illustrator 16.0.0, SVG Export Plug-In . SVG Version: 6.00 Build 0)  -->
<!DOCTYPE svg PUBLIC "-//W3C//DTD SVG 1.1//EN" "http://www.w3.org/Graphics/SVG/1.1/DTD/svg11.dtd">
<svg version="1.1" id="Layer_1" xmlns="http://www.w3.org/2000/svg" xmlns:xlink="http://www.w3.org/1999/xlink" x="0px" y="0px"
	 width="334.229px" height="263.519px" viewBox="0 0 334.229 263.519" style="enable-background:new 0 0 334.229 263.519;"
	 xml:space="preserve">
<path style="fill:#FFFFFF;" d="M106.311,57.311c2.539,1.451,2.069,1.313,2.069,1.313c0.725,0,8.813-9.656,21.508-9.656
	c15.959,0,18.724,15.295,18.724,15.295l0.137,14.643C134.24,89.426,93.253,145.04,93.253,180.586
	c0,41.749,28.292,65.486,31.557,65.123c1.813-0.362,14.871-10.881,23.939-18.136v0.363c0,9.431,4.951,17.047,15.106,17.047
	c3.419,0,19.093-20.508,19.093-20.508s-1.917,5.638-6.633,1.285c-4.715-4.352-3.265-15.597-3.265-15.597h-0.362V63.477
	c0-31.918-36.997-32.281-36.997-32.281S105.586,56.949,106.311,57.311L106.311,57.311z M148.749,119.13v102.64l-10.156,7.254
	c0,0-19.184-29.355-19.184-57.016c0-45.003,24.625-83.308,29.34-86.572V119.13z"/>
<path style="fill:#FFFFFF;" d="M144.621,13.31c-1.839,2.435-4.448,5.716-7.832,9.842c-5.148,6.046-7.796,9.144-7.943,9.291
	c-3.825,3.835-7.133,5.752-9.929,5.752H88.03v75.629c0,1.764-0.075,77.643-0.221,78.081c-2.208,9.701-4.781,16.979-7.721,21.829
	c-0.588,0.735-2.244,2.646-4.964,5.732c-2.721,3.09-6.435,7.352-11.141,12.788c-0.293,0.294-0.699,0.699-1.215,1.215
	c-0.516,0.516-1.139,1.064-1.875,1.653c-12.355,13.229-19.488,19.843-21.399,19.843c-1.619,0-6.326-3.456-14.122-10.367
	c-7.649-6.764-11.47-10.879-11.47-12.352c0-3.675,4.043-14.555,12.133-32.643c15.736,23.236,26.106,34.85,31.109,34.85
	c4.854,0,7.28-8.6,7.28-25.806L64.201,48.955l12.355-10.147c-7.355-0.882-16.252-1.323-26.694-1.323
	c-22.212,0-33.316,1.914-33.316,5.735c0,2.649,4.413,6.62,13.237,11.914c9.119,5.147,15.517,7.721,19.195,7.721L33.755,90.434
	c-3.678,0-10.223-3.603-19.635-10.811C4.707,72.417,0,67.121,0,63.737c0-3.087,6.03-11.984,18.091-26.693
	c1.469-1.761,2.868-3.522,4.193-5.283c1.323-1.761,2.721-3.597,4.191-5.508c1.764-2.052,3.419-3.889,4.964-5.502
	c1.542-1.614,2.976-2.937,4.301-3.966c2.795-2.055,31.697-3.084,86.707-3.084c6.324,0,11.177-0.036,14.561-0.111
	s5.441-0.186,6.179-0.336l4.634-4.701C147.527,9.291,146.459,10.877,144.621,13.31z"/>
<path style="fill:#FFFFFF;" d="M307.624,259.956c-13.396-9.409-53.561-112.228-56.094-122.545l-7.6,16.559v72.801l-4.086,2.444l0,0
	c-0.546,0.904-6.903,4.433-19.067,10.586V74.158c0-5.788,7.806-17.283,23.422-34.477c0.543-0.539,0.997-1.082,1.358-1.628
	l13.576-14.658c4.522-4.887,8.413-7.331,11.672-7.331c5.068,0,9.955,1.54,14.661,4.615c1.99,1.45,4.027,2.989,6.109,4.617
	s4.116,3.167,6.109,4.614L281.396,59.5c-13.395-12.307-23.077-18.46-29.049-18.46c-5.611,0-8.416,5.792-8.416,17.375v79.808
	c0.539-1.989,1.307-4.16,2.303-6.515c0.997-2.352,2.219-4.976,3.669-7.87c3.979-8.324,6.153-12.938,6.516-13.846
	c2.352-5.611,4.569-10.269,6.651-13.979c2.082-3.709,4.027-6.559,5.836-8.552c5.61-6.515,13.303-9.774,23.077-9.774
	c4.345,0,6.699,0.727,7.062,2.174l4.071,30.131c-3.26-3.618-9.594-5.429-19.006-5.429c-2.895,0-6.062,0.815-9.501,2.443
	c-4.345,1.993-6.516,4.071-6.516,6.242c0,1.631,1.628,8.235,4.888,19.818c1.808,5.792,3.256,10.405,4.341,13.846
	c1.085,3.44,34.195,79.81,43.062,91.328c1.728,2.243,6.335,1.897,11.402,1.897h2.443L307.624,259.956z"/>
<path style="fill:#FFFFFF;" d="M198.854,259.797c-2.979-0.25-5.96-0.562-8.936-0.933c-2.98-0.372-5.897-0.744-8.751-1.116
	c-7.325-0.744-10.675-1.119-15.266-1.119h-2.048c0.121,0.124,0.248,0.187,0.371,0.187c-0.621,0.248-2.297,2.11-5.027,5.586
	l15.268-23.828l2.979-0.375l8.877-13.393l0.34-180.872c0-6.949,0.312-11.045,0.932-12.287c0.496-1.237,7.695-6.823,21.599-16.754
	C223.09,4.964,230.476,0,231.344,0c3.352,0,7.634,2.729,12.846,8.191c4.22,4.716,7.385,9,9.497,12.845l-16.943,18.989
	c-12.538-17.002-20.355-25.506-23.457-25.506c-2.233,0-3.353,5.896-3.353,17.686l0.172,192.594l-19.175,14.519
	c20.33,3.857,57.396,4.467,70.677,4.467c4.842,0,7.755-0.494,8.75-1.488c4.47-4.468,6.702-7.694,6.702-9.682
	c0-0.248-0.063-0.371-0.186-0.371l-15.638,29.787c-3.104,0.867-5.276,1.305-6.517,1.305l0.373,0.185
	c-0.623,0-1.677-0.063-3.167-0.185"/>
</svg>
